HIERARCHY
ROOT Hips
{
     OFFSET 1.88212 96.90440 -13.34250
     CHANNELS 6 Xposition Yposition Zposition Zrotation Xrotation Yrotation
     JOINT Spine
     {
          OFFSET 0.00000 11.89050 0.00000
          CHANNELS 3 Zrotation Xrotation Yrotation
          JOINT Spine1
          {
               OFFSET -0.00000 25.65740 0.12766
               CHANNELS 3 Zrotation Xrotation Yrotation
               JOINT HEad
               {
                    OFFSET 0.00000 8.73416 0.01134
                    CHANNELS 3 Zrotation Xrotation Yrotation
                    End Site
                    {
                         OFFSET -0.29000 12.77420 2.51395
                    }
               }
               JOINT LeftShoulder1
               {
                    OFFSET 8.99000 -0.36225 -0.22000
                    CHANNELS 3 Zrotation Xrotation Yrotation
                    JOINT LeftArm
                    {
                         OFFSET 10.28270 -0.00338 0.32212
                         CHANNELS 3 Zrotation Xrotation Yrotation
                         JOINT LeftForeArm
                         {
                              OFFSET 32.76690 0.09914 -1.42434
                              CHANNELS 3 Zrotation Xrotation Yrotation
                              JOINT LeftHand
                              {
                                   OFFSET 27.56430 0.08536 1.02216
                                   CHANNELS 3 Zrotation Xrotation Yrotation
                                   End Site
                                   {
                                        OFFSET 16.74430 -0.60000 1.50291
                                   }
                              }
                         }
                    }
               }
               JOINT RightShoulder
               {
                    OFFSET -8.99000 -0.36225 -0.22000
                    CHANNELS 3 Zrotation Xrotation Yrotation
                    JOINT RightArm
                    {
                         OFFSET -10.28270 -0.00338 0.32212
                         CHANNELS 3 Zrotation Xrotation Yrotation
                         JOINT RightForeArm
                         {
                              OFFSET -32.89710 0.09914 -1.42434
                              CHANNELS 3 Zrotation Xrotation Yrotation
                              JOINT RightHand
                              {
                                   OFFSET -27.49210 0.08536 1.02216
                                   CHANNELS 3 Zrotation Xrotation Yrotation
                                   End Site
                                   {
                                        OFFSET -16.63120 -0.60000 1.50291
                                   }
                              }
                         }
                    }
               }
          }
     }
     JOINT LeftUpLeg
     {
          OFFSET 8.94580 -8.66707 0.10165
          CHANNELS 3 Zrotation Xrotation Yrotation
          JOINT LeftLeg
          {
               OFFSET 0.00000 -44.42270 1.37270
               CHANNELS 3 Zrotation Xrotation Yrotation
               JOINT LeftFoot
               {
                    OFFSET -0.25355 -42.09240 -1.46059
                    CHANNELS 3 Zrotation Xrotation Yrotation
                    JOINT LeftToes
                    {
                         OFFSET -0.04000 -4.41509 8.49910
                         CHANNELS 3 Zrotation Xrotation Yrotation
                         End Site
                         {
                              OFFSET 0.08000 -0.04745 9.77979
                         }
                    }
               }
          }
     }
     JOINT RightUpLeg
     {
          OFFSET -8.94580 -8.66707 0.10165
          CHANNELS 3 Zrotation Xrotation Yrotation
          JOINT RightLeg
          {
               OFFSET 0.00000 -44.42270 1.37270
               CHANNELS 3 Zrotation Xrotation Yrotation
               JOINT RightFoot
               {
                    OFFSET 0.25355 -42.09240 -1.46059
                    CHANNELS 3 Zrotation Xrotation Yrotation
                    JOINT RightToes
                    {
                         OFFSET 0.04000 -4.41509 8.49910
                         CHANNELS 3 Zrotation Xrotation Yrotation
                         End Site
                         {
                              OFFSET -0.08000 -0.13745 9.77979
                         }
                    }
               }
          }
     }
}
MOTION
Frames: 6
Frame Time: 0.01667
-10.91867 92.92607 -119.93549 -1.78445 18.91017 -161.59673 7.06981 25.13317 -3.11860 0.00191 0.00092 -0.00438 8.00617 2.69867 12.09238 -6.21220 10.73601 5.97800 -89.76959 -59.63750 -62.61328 -21.39094 55.08687 -115.26694 22.78022 5.37567 -11.31522 11.30951 11.03242 -3.26488 88.04076 -1.83649 70.46887 -0.39387 28.90920 111.27872 15.09280 8.91399 -0.10874 21.75472 -5.43651 -25.38418 -28.59931 9.41638 69.04755 -5.72582 0.00153 0.00196 9.78939 -14.40566 -61.83784 -23.23050 2.72447 11.49326 40.50228 48.79053 -39.90482 -23.42484 -0.00435 0.04571 4.59372 -16.92857 16.34620 
-11.98410 93.14288 -120.41945 -1.83276 18.98313 -161.87268 6.42882 25.18404 -2.69943 0.00369 -0.00003 -0.00138 7.31188 2.67854 11.68631 -5.78624 10.53519 7.06615 -88.88786 -56.53478 -60.89096 -22.05245 56.65679 -117.92548 22.95673 -0.68216 -11.07295 13.01721 10.79607 -3.69398 86.51499 -4.30113 67.03987 1.38496 27.69895 112.05528 11.66396 6.59194 -5.47340 21.09282 -4.64415 -24.46712 -28.37945 9.75914 69.13670 -5.61394 0.00177 0.00148 8.95205 -16.99299 -66.67823 -23.25171 1.96549 12.11937 42.52530 50.08653 -41.28410 -17.28516 -0.02808 0.07904 3.32401 -24.08615 14.19366 
-12.92903 93.33067 -120.86119 -2.15262 18.90124 -161.38953 5.65820 25.19683 -2.41085 -0.00695 0.01581 0.02610 6.34466 2.60759 10.53348 -5.18774 10.26054 8.29063 -89.43163 -52.51642 -60.91296 -25.59131 58.89709 -117.37867 24.38592 -7.17192 -9.95213 16.83205 11.24930 -1.52428 82.52774 -10.61057 62.60979 3.66978 26.05198 113.04510 8.62235 3.26752 -11.44498 20.05097 -4.32113 -23.78104 -27.94352 10.37615 68.90447 -5.52331 0.00196 0.00109 8.01266 -18.67043 -70.22937 -23.56656 1.52227 12.48565 44.81242 50.78503 -41.69130 -14.75101 -0.03155 0.04285 6.38771 -33.08539 15.04367 
-13.73221 93.47650 -121.24960 -3.25013 18.49187 -158.53391 4.82373 25.16414 -2.47470 -0.01340 0.03745 0.09992 5.67217 2.28254 7.51642 -4.48414 9.89022 8.96119 -95.11763 -48.69561 -67.35192 -42.60396 60.48773 -99.32470 21.42842 7.69037 -12.23536 21.51442 14.80737 7.61284 75.71867 -25.01311 55.06307 6.68795 22.76869 113.56463 9.88980 -5.65203 -15.49197 17.92939 -5.14912 -23.91855 -27.02083 11.75355 67.65041 -5.42161 0.00309 0.00085 7.06822 -18.20385 -70.52681 -24.71413 2.27506 12.12974 46.55956 50.04076 -38.07138 -23.17176 0.42644 0.20232 20.59388 -40.31814 27.26561 
-14.37616 93.56425 -121.56958 -4.95521 17.86145 -153.74390 4.14528 25.20502 -2.87035 -0.00256 0.03151 0.08935 5.09156 1.96150 3.07016 -4.28149 8.03781 18.49079 -99.51320 -37.04870 -71.95152 -61.17627 61.56590 -79.25024 20.87276 6.09783 -13.79615 24.10482 18.21266 16.10076 67.74276 -36.37428 43.28559 10.34731 18.34758 112.92059 12.14056 -11.10940 -12.93782 14.89703 -6.62544 -24.76924 -25.69478 13.74777 65.46354 -5.27617 0.00290 0.00024 5.95589 -17.97080 -72.15158 -26.39473 4.22394 11.36948 47.59956 48.50412 -31.87803 -22.02153 -0.01299 0.02864 22.86138 -43.62841 32.54308 
-14.86083 93.59723 -121.81001 -7.13659 17.01910 -147.38139 3.77672 25.35948 -3.56747 0.00615 0.02568 0.07643 4.48630 1.78465 -2.62108 -3.36129 7.86348 16.09942 -107.86839 -37.83035 -79.81407 -72.56358 61.54672 -64.11591 28.51329 24.52191 -20.21203 25.07961 20.71309 24.16226 59.89606 -43.32914 31.10620 14.58663 13.32183 109.75541 19.10263 -16.84718 -5.89879 11.02345 -8.26889 -26.23307 -23.98641 16.17688 62.37601 -5.05634 0.00246 -0.00060 4.83722 -17.01698 -72.90412 -28.29622 7.36708 10.46262 47.88416 46.50585 -24.20263 -25.33181 0.31262 0.15163 16.61986 -41.66208 15.13775 
